<svg xmlns="http://www.w3.org/2000/svg" width="637.889" height="201.858" viewBox="0 0 637.889 201.858"><g fill="#1961AC"><path d="M14.533 196.95c0 1.369-.491 2.548-1.469 3.525-.978.976-2.155 1.462-3.529 1.462H8.106c-1.375 0-2.552-.486-3.532-1.462-.976-.978-1.468-2.156-1.468-3.525v-10.699c0-1.375.492-2.548 1.468-3.525.98-.976 2.157-1.467 3.532-1.467h1.428c1.375 0 2.552.491 3.529 1.467.978.978 1.469 2.15 1.469 3.525v10.699zm-2.594.02v-10.714a2.31 2.31 0 0 0-.707-1.707 2.32 2.32 0 0 0-1.691-.698H8.098c-.657 0-1.222.232-1.693.698a2.321 2.321 0 0 0-.706 1.707v10.714c0 .649.235 1.21.706 1.678.471.468 1.036.7 1.693.7h1.443c.655 0 1.221-.232 1.691-.7a2.278 2.278 0 0 0 .707-1.678M29.131 196.882c0 1.377-.492 2.551-1.467 3.523-.98.969-2.158 1.453-3.532 1.453h-5.104a1.3 1.3 0 0 1-.939-.367 1.243 1.243 0 0 1-.383-.928v-17.955c0-.354.128-.658.383-.914.255-.254.569-.383.939-.383h5.104c1.375 0 2.552.483 3.532 1.456.975.973 1.467 2.146 1.467 3.522v1.617c0 1.393-.513 2.585-1.534 3.573-.071.068-.071.14 0 .212 1.021.988 1.534 2.18 1.534 3.575v1.616zm-2.592-8.985v-1.612c0-.653-.235-1.214-.707-1.679a2.322 2.322 0 0 0-1.692-.705h-3.708c-.09 0-.132.055-.132.158v6.06c0 .106.042.159.132.159h3.708c.657 0 1.222-.235 1.692-.703a2.28 2.28 0 0 0 .707-1.678m0 8.983v-1.623c0-.655-.235-1.216-.707-1.684a2.3 2.3 0 0 0-1.692-.705h-3.708c-.09 0-.132.053-.132.158v6.084c0 .107.042.158.132.158h3.708c.657 0 1.222-.232 1.692-.703.472-.47.707-1.031.707-1.685M43.729 187.897c0 .967-.266 1.859-.793 2.668a4.974 4.974 0 0 1-2.089 1.826c-.089.057-.115.125-.08.215l2.857 7.484a1.23 1.23 0 0 1-.281 1.385 1.277 1.277 0 0 1-.945.383c-.585 0-.994-.28-1.223-.838l-3.031-8.018c-.036-.088-.106-.135-.213-.135h-2.904c-.087 0-.131.053-.131.158v7.537c0 .354-.129.66-.382.912a1.218 1.218 0 0 1-.901.383 1.25 1.25 0 0 1-.931-.383 1.248 1.248 0 0 1-.378-.912v-17.957c0-.352.126-.656.382-.912.256-.254.571-.383.939-.383h5.104c1.375 0 2.553.483 3.532 1.453.977.973 1.467 2.144 1.467 3.521v1.613zm-2.592 0v-1.612c0-.653-.235-1.214-.707-1.679a2.325 2.325 0 0 0-1.693-.705H35.03c-.09 0-.133.055-.133.161v6.057c0 .106.043.159.133.159h3.707c.657 0 1.222-.235 1.693-.703a2.276 2.276 0 0 0 .707-1.678M60.021 200.193c.035.124.052.249.052.37 0 .354-.125.66-.378.912a1.249 1.249 0 0 1-.93.383c-.629 0-1.039-.307-1.23-.931l-.873-2.875c-.019-.087-.08-.132-.187-.132h-5.999c-.105 0-.167.042-.185.124l-.848 2.883c-.194.624-.603.931-1.229.931-.369 0-.678-.125-.931-.383a1.249 1.249 0 0 1-.379-.912c0-.121.017-.246.054-.37l5.289-17.957c.175-.618.589-.925 1.242-.925s1.066.307 1.242.925l5.29 17.957zm-4.209-5.024l-2.257-7.753c0-.032-.021-.048-.066-.048s-.066.016-.066.048l-2.309 7.74c-.034.114 0 .172.108.172h4.482c.108 0 .142-.053.108-.159M82.606 196.919c0 1.391-.49 2.576-1.468 3.557-.979.976-2.157 1.462-3.532 1.462H76.18a4.795 4.795 0 0 1-3.148-1.136 4.97 4.97 0 0 1-1.746-2.881 1.219 1.219 0 0 1 .199-.968c.204-.288.482-.478.837-.567.353-.066.679 0 .98.2.301.201.485.481.557.83.107.568.38 1.03.823 1.39.441.362.946.542 1.511.542h1.434c.652 0 1.214-.237 1.685-.714a2.364 2.364 0 0 0 .702-1.72v-.872c0-.756-.242-1.422-.722-1.996A2.974 2.974 0 0 0 77.449 193l-1.534-.265c-1.375-.227-2.508-.871-3.398-1.929-.893-1.058-1.336-2.292-1.336-3.705v-.872c0-1.374.49-2.553 1.468-3.541s2.156-1.482 3.532-1.482h1.426c1.236 0 2.316.398 3.241 1.188.925.796 1.485 1.808 1.678 3.045.054.349-.022.671-.225.962a1.22 1.22 0 0 1-.861.518 1.256 1.256 0 0 1-.97-.243 1.236 1.236 0 0 1-.517-.851 2.289 2.289 0 0 0-.81-1.453 2.315 2.315 0 0 0-1.551-.574h-1.433c-.654 0-1.216.232-1.684.706a2.325 2.325 0 0 0-.703 1.712v.878c0 .761.24 1.435.72 2.021a2.958 2.958 0 0 0 1.842 1.065l1.534.264c1.375.228 2.51.872 3.401 1.927.891 1.058 1.336 2.283 1.336 3.676v.872zM97.206 196.95c0 1.369-.492 2.548-1.468 3.525-.98.976-2.157 1.462-3.534 1.462h-1.428c-1.373 0-2.55-.486-3.529-1.462-.978-.978-1.468-2.156-1.468-3.525v-10.699c0-1.375.49-2.548 1.468-3.525.979-.976 2.157-1.467 3.529-1.467h1.428c1.377 0 2.553.491 3.534 1.467.976.978 1.468 2.15 1.468 3.525v10.699zm-2.594.02v-10.714a2.31 2.31 0 0 0-.707-1.707 2.318 2.318 0 0 0-1.692-.698H90.77c-.656 0-1.221.232-1.691.698a2.313 2.313 0 0 0-.706 1.707v10.714c0 .649.234 1.21.706 1.678.47.468 1.036.7 1.691.7h1.443a2.31 2.31 0 0 0 1.692-.7 2.278 2.278 0 0 0 .707-1.678M111.327 184.073c.07.172.104.359.104.552 0 .37-.125.677-.38.936a1.262 1.262 0 0 1-.913.378c-.547 0-.936-.243-1.164-.729-.441-.907-1.164-1.359-2.168-1.359h-1.428a2.3 2.3 0 0 0-1.681.698 2.328 2.328 0 0 0-.701 1.707v10.714c0 .649.234 1.21.701 1.678.468.468 1.029.7 1.681.7h1.428c1.004 0 1.718-.446 2.139-1.34.247-.499.646-.751 1.193-.751.353 0 .657.133.913.384.255.259.38.563.38.911 0 .199-.043.389-.129.587a5.002 5.002 0 0 1-1.853 2.032 4.849 4.849 0 0 1-2.644.767h-1.428c-1.375 0-2.546-.486-3.518-1.462-.973-.978-1.455-2.156-1.455-3.525v-10.699c0-1.375.482-2.548 1.455-3.525.971-.976 2.142-1.467 3.518-1.467h1.428c.953 0 1.838.254 2.656.761a4.933 4.933 0 0 1 1.866 2.052M117.226 200.563c0 .354-.128.66-.379.912a1.225 1.225 0 0 1-.904.383c-.367 0-.677-.125-.93-.383a1.243 1.243 0 0 1-.381-.912v-17.957c0-.352.127-.656.381-.912.253-.254.563-.383.93-.383.348 0 .649.129.904.383.251.256.379.561.379.912v17.957zM133.542 200.193c.035.124.052.249.052.37 0 .354-.127.66-.379.912a1.248 1.248 0 0 1-.929.383c-.628 0-1.039-.307-1.229-.931l-.874-2.875c-.02-.087-.083-.132-.186-.132h-6c-.105 0-.167.042-.185.124l-.849 2.883c-.191.624-.603.931-1.229.931-.369 0-.678-.125-.931-.383a1.243 1.243 0 0 1-.381-.912c0-.121.019-.246.056-.37l5.287-17.957c.18-.618.593-.925 1.244-.925.652 0 1.066.307 1.243.925l5.29 17.957zm-4.209-5.024l-2.257-7.753c0-.032-.024-.048-.066-.048-.043 0-.066.016-.066.048l-2.307 7.74c-.036.114 0 .172.104.172h4.486c.106 0 .142-.053.106-.159M147.163 200.563c0 .354-.129.66-.385.912a1.241 1.241 0 0 1-.913.383h-7.776c-.353 0-.655-.125-.912-.383a1.237 1.237 0 0 1-.383-.912v-17.957c0-.352.127-.656.383-.912.256-.254.559-.383.912-.383s.657.129.913.383c.256.256.386.561.386.912v16.504c0 .105.052.158.157.158h6.32c.351 0 .657.124.913.37.256.249.385.555.385.925M169.721 196.863c0 1.374-.49 2.551-1.468 3.528-.979.978-2.155 1.467-3.53 1.467h-5.104a1.26 1.26 0 0 1-.939-.383 1.24 1.24 0 0 1-.382-.912v-17.957c0-.352.127-.656.382-.912.253-.254.568-.383.939-.383h5.104c1.375 0 2.551.483 3.53 1.453.978.973 1.468 2.144 1.468 3.521v10.578zm-2.594 0v-10.578c0-.653-.234-1.214-.708-1.679a2.315 2.315 0 0 0-1.69-.705h-3.709c-.088 0-.133.055-.133.161v15.048c0 .107.045.158.133.158h3.709c.657 0 1.221-.232 1.69-.7a2.295 2.295 0 0 0 .708-1.705M183.289 200.563c0 .354-.128.66-.384.912a1.235 1.235 0 0 1-.913.383h-7.776c-.353 0-.655-.125-.912-.383a1.236 1.236 0 0 1-.382-.912v-17.957c0-.352.125-.656.382-.912.256-.254.559-.383.912-.383h7.776c.355 0 .657.129.913.383.256.256.384.561.384.912 0 .354-.128.658-.384.914a1.248 1.248 0 0 1-.913.381h-6.321c-.104 0-.156.055-.156.161v6.081c0 .09.052.135.156.135h5.291c.353 0 .657.127.912.383.255.254.385.561.385.912 0 .369-.129.676-.385.925a1.26 1.26 0 0 1-.912.37h-5.291c-.104 0-.156.053-.156.158v6.084c0 .105.052.158.156.158h6.321c.355 0 .657.124.913.37.256.249.384.555.384.925M196.881 200.563c0 .354-.127.66-.383.912a1.238 1.238 0 0 1-.914.383h-7.775c-.353 0-.657-.125-.912-.383a1.237 1.237 0 0 1-.383-.912v-17.957c0-.352.127-.656.383-.912a1.25 1.25 0 0 1 .912-.383c.353 0 .658.129.913.383.256.256.384.561.384.912v16.504c0 .105.052.158.159.158h6.319c.355 0 .657.124.914.37.256.249.383.555.383.925M219.441 187.897c0 1.373-.493 2.547-1.475 3.517-.98.97-2.162 1.454-3.54 1.454h-3.687c-.09 0-.133.053-.133.158v7.537c0 .354-.127.66-.381.912a1.212 1.212 0 0 1-.902.383 1.25 1.25 0 0 1-.93-.383 1.248 1.248 0 0 1-.378-.912v-17.957c0-.352.127-.656.382-.912.255-.254.569-.383.938-.383h5.106c1.376 0 2.551.483 3.533 1.453.975.973 1.467 2.144 1.467 3.521v1.612zm-2.594 0v-1.612c0-.653-.235-1.214-.707-1.679a2.32 2.32 0 0 0-1.693-.705h-3.708c-.09 0-.133.055-.133.161v6.057c0 .106.043.159.133.159h3.708c.66 0 1.222-.235 1.693-.703a2.276 2.276 0 0 0 .707-1.678M233.008 200.563c0 .354-.129.66-.386.912a1.239 1.239 0 0 1-.912.383h-7.778c-.351 0-.654-.125-.91-.383a1.24 1.24 0 0 1-.383-.912v-17.957c0-.352.128-.656.383-.912a1.25 1.25 0 0 1 .91-.383h7.778c.351 0 .655.129.912.383.256.256.386.561.386.912 0 .354-.129.658-.386.914a1.252 1.252 0 0 1-.912.381h-6.32c-.105 0-.16.055-.16.161v6.081c0 .09.054.135.16.135h5.29c.353 0 .655.127.912.383.255.254.385.561.385.912 0 .369-.13.676-.385.925-.256.248-.559.37-.912.37h-5.29c-.105 0-.16.053-.16.158v6.084c0 .105.054.158.16.158h6.32c.351 0 .655.124.912.37.257.249.386.555.386.925M247.633 187.897c0 .967-.267 1.859-.794 2.668a4.986 4.986 0 0 1-2.089 1.826c-.09.057-.115.125-.081.215l2.857 7.484c.07.155.107.314.107.473 0 .354-.129.66-.387.912a1.276 1.276 0 0 1-.943.383c-.585 0-.992-.28-1.224-.838l-3.031-8.018c-.036-.088-.107-.135-.213-.135h-2.904c-.087 0-.132.053-.132.158v7.537c0 .354-.127.66-.38.912a1.21 1.21 0 0 1-.902.383c-.368 0-.675-.125-.929-.383a1.25 1.25 0 0 1-.38-.912v-17.957c0-.352.129-.656.383-.912.255-.254.569-.383.94-.383h5.103c1.375 0 2.552.483 3.532 1.453.977.973 1.468 2.144 1.468 3.521v1.613zm-2.594 0v-1.612a2.27 2.27 0 0 0-.708-1.679 2.315 2.315 0 0 0-1.691-.705h-3.708c-.089 0-.134.055-.134.161v6.057c0 .106.045.159.134.159h3.708a2.31 2.31 0 0 0 1.691-.703 2.273 2.273 0 0 0 .708-1.678M262.23 196.919c0 1.391-.489 2.576-1.468 3.557-.978.976-2.154 1.462-3.53 1.462h-1.427a4.796 4.796 0 0 1-3.147-1.136 4.972 4.972 0 0 1-1.747-2.881 1.212 1.212 0 0 1 .201-.968c.202-.288.479-.478.835-.567.352-.066.679 0 .982.2.301.201.485.481.556.83.105.568.38 1.03.825 1.39.44.362.945.542 1.51.542h1.432c.655 0 1.216-.237 1.684-.714.47-.476.703-1.049.703-1.72v-.872a3.01 3.01 0 0 0-.721-1.996 2.966 2.966 0 0 0-1.843-1.046l-1.534-.265c-1.374-.227-2.508-.871-3.397-1.929-.892-1.058-1.337-2.292-1.337-3.705v-.872c0-1.374.49-2.553 1.469-3.541.978-.988 2.157-1.482 3.531-1.482h1.427c1.234 0 2.315.398 3.24 1.188.925.796 1.486 1.808 1.679 3.045a1.28 1.28 0 0 1-.226.962c-.204.293-.49.463-.863.518a1.247 1.247 0 0 1-.966-.243 1.237 1.237 0 0 1-.518-.851 2.301 2.301 0 0 0-.809-1.453 2.324 2.324 0 0 0-1.551-.574h-1.432c-.655 0-1.217.232-1.686.706a2.328 2.328 0 0 0-.702 1.712v.878c0 .761.238 1.435.72 2.021a2.953 2.953 0 0 0 1.843 1.065l1.534.264c1.375.228 2.508.872 3.398 1.927a5.546 5.546 0 0 1 1.336 3.676v.872zM276.83 196.95c0 1.369-.49 2.548-1.468 3.525-.979.976-2.155 1.462-3.529 1.462h-1.43c-1.375 0-2.551-.486-3.532-1.462-.977-.978-1.467-2.156-1.467-3.525v-10.699c0-1.375.49-2.548 1.467-3.525.98-.976 2.156-1.467 3.532-1.467h1.43c1.375 0 2.55.491 3.529 1.467.978.978 1.468 2.15 1.468 3.525v10.699zm-2.594.02v-10.714a2.31 2.31 0 0 0-.707-1.707 2.316 2.316 0 0 0-1.691-.698h-1.441c-.658 0-1.221.232-1.694.698a2.321 2.321 0 0 0-.706 1.707v10.714c0 .649.235 1.21.706 1.678a2.32 2.32 0 0 0 1.694.7h1.441c.658 0 1.221-.232 1.691-.7a2.278 2.278 0 0 0 .707-1.678M291.428 200.563c0 .354-.129.66-.383.912a1.267 1.267 0 0 1-.939.383c-.528 0-.918-.246-1.162-.737l-6.218-12.669a.107.107 0 0 0-.098-.053c-.022.018-.033.045-.033.079v12.085c0 .354-.126.66-.379.912a1.22 1.22 0 0 1-.902.383 1.25 1.25 0 0 1-.931-.383 1.246 1.246 0 0 1-.38-.912v-17.957c0-.37.127-.68.38-.926a1.29 1.29 0 0 1 .931-.369c.523 0 .909.24 1.153.724l6.226 12.688c.024.033.06.039.107.023.025 0 .036-.019.036-.053v-12.088c0-.352.127-.656.381-.912.253-.254.554-.383.904-.383.367 0 .675.129.928.383.253.256.38.561.38.912v17.958zM307.72 200.193c.035.124.052.249.052.37 0 .354-.127.66-.378.912a1.253 1.253 0 0 1-.93.383c-.626 0-1.039-.307-1.23-.931l-.873-2.875c-.019-.087-.081-.132-.187-.132h-5.998c-.107 0-.169.042-.187.124l-.848 2.883c-.194.624-.604.931-1.23.931-.368 0-.678-.125-.93-.383a1.24 1.24 0 0 1-.379-.912c0-.121.017-.246.053-.37l5.29-17.957c.176-.618.59-.925 1.242-.925s1.066.307 1.242.925l5.291 17.957zm-4.21-5.024l-2.257-7.753c0-.032-.022-.048-.065-.048-.045 0-.069.016-.069.048l-2.306 7.74c-.036.114 0 .172.106.172h4.483c.108 0 .142-.053.108-.159M321.34 200.563c0 .354-.129.66-.383.912a1.245 1.245 0 0 1-.914.383h-7.776c-.353 0-.655-.125-.913-.383a1.238 1.238 0 0 1-.38-.912v-17.957c0-.352.125-.656.38-.912.258-.254.561-.383.913-.383s.657.129.913.383c.254.256.384.561.384.912v16.504c0 .105.053.158.159.158h6.32c.353 0 .656.124.914.37.254.249.383.555.383.925M343.899 196.863c0 1.374-.49 2.551-1.467 3.528-.981.978-2.159 1.467-3.533 1.467h-5.103c-.37 0-.688-.125-.942-.383a1.24 1.24 0 0 1-.383-.912v-17.957c0-.352.128-.656.383-.912a1.29 1.29 0 0 1 .942-.383h5.103c1.374 0 2.552.483 3.533 1.453.977.973 1.467 2.144 1.467 3.521v10.578zm-2.594 0v-10.578a2.27 2.27 0 0 0-.707-1.679 2.314 2.314 0 0 0-1.691-.705H335.2c-.092 0-.137.055-.137.161v15.048c0 .107.045.158.137.158h3.706c.659 0 1.223-.232 1.691-.7a2.302 2.302 0 0 0 .708-1.705M357.466 200.563c0 .354-.129.66-.383.912-.258.258-.56.383-.915.383h-7.775c-.35 0-.655-.125-.911-.383a1.242 1.242 0 0 1-.384-.912v-17.957c0-.352.129-.656.384-.912.256-.254.562-.383.911-.383h7.775c.355 0 .657.129.915.383.254.256.383.561.383.912 0 .354-.129.658-.383.914-.258.254-.56.381-.915.381h-6.321c-.103 0-.157.055-.157.161v6.081c0 .09.055.135.157.135h5.291c.354 0 .656.127.912.383.256.254.386.561.386.912 0 .369-.13.676-.386.925a1.26 1.26 0 0 1-.912.37h-5.291c-.103 0-.157.053-.157.158v6.084c0 .105.055.158.157.158h6.321c.355 0 .657.124.915.37.254.249.383.555.383.925M378.994 200.563c0 .354-.13.66-.387.912a1.236 1.236 0 0 1-.912.383h-7.775c-.352 0-.657-.125-.911-.383a1.237 1.237 0 0 1-.383-.912v-17.957c0-.352.127-.656.383-.912.254-.254.56-.383.911-.383.353 0 .656.129.913.383.255.256.384.561.384.912v16.504c0 .105.054.158.157.158h6.321c.354 0 .656.124.912.37.257.249.387.555.387.925M395.312 200.193c.033.124.051.249.051.37 0 .354-.128.66-.379.912a1.252 1.252 0 0 1-.931.383c-.628 0-1.039-.307-1.229-.931l-.874-2.875c-.02-.087-.08-.132-.187-.132h-5.998c-.106 0-.168.042-.186.124l-.85 2.883c-.192.624-.6.931-1.23.931-.365 0-.676-.125-.93-.383a1.245 1.245 0 0 1-.379-.912c0-.121.017-.246.053-.37l5.289-17.957c.18-.618.589-.925 1.243-.925.653 0 1.066.307 1.242.925l5.295 17.957zm-4.212-5.024l-2.256-7.753c0-.032-.023-.048-.064-.048-.046 0-.07.016-.07.048l-2.305 7.74c-.035.114 0 .172.106.172h4.484c.105 0 .14-.053.105-.159M419.586 200.193c.039.124.054.249.054.37 0 .354-.127.66-.38.912a1.25 1.25 0 0 1-.928.383c-.63 0-1.038-.307-1.229-.931l-.874-2.875c-.02-.087-.082-.132-.188-.132h-5.999c-.103 0-.166.042-.184.124l-.851 2.883c-.191.624-.602.931-1.228.931-.367 0-.68-.125-.933-.383a1.246 1.246 0 0 1-.38-.912c0-.121.018-.246.055-.37l5.289-17.957c.179-.618.591-.925 1.245-.925.649 0 1.064.307 1.239.925l5.292 17.957zm-4.208-5.024l-2.257-7.753c0-.032-.021-.048-.063-.048-.045 0-.068.016-.068.048l-2.306 7.74c-.036.114 0 .172.104.172h4.485c.105 0 .138-.053.105-.159M433.762 184.073c.07.172.105.359.105.552 0 .37-.128.677-.382.936a1.26 1.26 0 0 1-.913.378c-.545 0-.936-.243-1.164-.729-.441-.907-1.165-1.359-2.168-1.359h-1.429c-.649 0-1.214.232-1.682.698a2.33 2.33 0 0 0-.699 1.707v10.714c0 .649.233 1.21.699 1.678.468.468 1.032.7 1.682.7h1.429c1.003 0 1.718-.446 2.142-1.34.246-.499.646-.751 1.19-.751.354 0 .657.133.913.384.254.259.382.563.382.911 0 .199-.046.389-.132.587a4.988 4.988 0 0 1-1.85 2.032 4.853 4.853 0 0 1-2.646.767h-1.429c-1.375 0-2.545-.486-3.518-1.462-.971-.978-1.453-2.156-1.453-3.525v-10.699c0-1.375.482-2.548 1.453-3.525.973-.976 2.143-1.467 3.518-1.467h1.429c.953 0 1.839.254 2.658.761a4.95 4.95 0 0 1 1.865 2.052M448.493 182.606c0 .354-.129.658-.384.914a1.28 1.28 0 0 1-.938.381h-2.936c-.107 0-.161.055-.161.161v16.501c0 .354-.128.66-.381.912a1.243 1.243 0 0 1-.914.383c-.352 0-.658-.125-.913-.383a1.244 1.244 0 0 1-.382-.912v-16.501c0-.106-.055-.161-.159-.161h-2.936a1.28 1.28 0 0 1-.938-.381 1.242 1.242 0 0 1-.385-.914c0-.352.127-.656.385-.912.257-.254.568-.383.938-.383h8.781c.37 0 .681.129.938.383.256.256.385.561.385.912M454.259 200.563c0 .354-.128.66-.38.912a1.221 1.221 0 0 1-.904.383c-.365 0-.676-.125-.928-.383a1.247 1.247 0 0 1-.381-.912v-17.957c0-.352.128-.656.381-.912.252-.254.563-.383.928-.383.349 0 .651.129.904.383.252.256.38.561.38.912v17.957zM470.574 182.979l-5.29 17.954c-.172.618-.589.925-1.242.925-.65 0-1.063-.307-1.241-.925l-5.289-17.954a1.311 1.311 0 0 1-.052-.373c0-.37.126-.677.378-.926.251-.245.562-.369.929-.369.629 0 1.038.312 1.23.933l3.979 13.513c0 .016.021.031.065.047.046-.016.068-.031.068-.047l3.981-13.513c.188-.621.6-.933 1.228-.933.366 0 .677.124.93.369.253.249.381.556.381.926.001.124-.019.247-.055.373M476.394 200.563c0 .354-.127.66-.38.912a1.217 1.217 0 0 1-.9.383c-.367 0-.679-.125-.933-.383a1.242 1.242 0 0 1-.38-.912v-17.957c0-.352.126-.656.38-.912a1.27 1.27 0 0 1 .933-.383c.346 0 .647.129.9.383.253.256.38.561.38.912v17.957zM491.02 196.863c0 1.374-.491 2.551-1.467 3.528-.98.978-2.156 1.467-3.531 1.467h-5.104c-.37 0-.686-.125-.94-.383a1.247 1.247 0 0 1-.385-.912v-17.957c0-.352.131-.656.385-.912.255-.254.57-.383.94-.383h5.104c1.375 0 2.551.483 3.531 1.453.976.973 1.467 2.144 1.467 3.521v10.578zm-2.592 0v-10.578c0-.653-.234-1.214-.709-1.679a2.319 2.319 0 0 0-1.691-.705h-3.709c-.09 0-.133.055-.133.161v15.048c0 .107.043.158.133.158h3.709c.658 0 1.221-.232 1.691-.7a2.3 2.3 0 0 0 .709-1.705M507.313 200.193c.032.124.05.249.05.37 0 .354-.128.66-.379.912a1.25 1.25 0 0 1-.929.383c-.631 0-1.038-.307-1.233-.931l-.871-2.875c-.02-.087-.08-.132-.188-.132h-5.997c-.107 0-.169.042-.185.124l-.851 2.883c-.189.624-.603.931-1.229.931-.365 0-.677-.125-.93-.383a1.246 1.246 0 0 1-.38-.912c0-.121.017-.246.053-.37l5.292-17.957c.176-.618.591-.925 1.242-.925s1.063.307 1.24.925l5.295 17.957zm-4.212-5.024l-2.258-7.753c0-.032-.021-.048-.063-.048-.047 0-.066.016-.066.048l-2.31 7.74c-.033.114 0 .172.107.172h4.485c.104 0 .141-.053.105-.159M521.965 196.863c0 1.374-.493 2.551-1.473 3.528-.977.978-2.155 1.467-3.53 1.467h-5.104c-.369 0-.682-.125-.937-.383a1.236 1.236 0 0 1-.382-.912v-17.957c0-.352.126-.656.382-.912.255-.254.567-.383.937-.383h5.104c1.375 0 2.554.483 3.53 1.453.979.973 1.473 2.144 1.473 3.521v10.578zm-2.596 0v-10.578a2.27 2.27 0 0 0-.707-1.679 2.326 2.326 0 0 0-1.692-.705h-3.708c-.09 0-.133.055-.133.161v15.048c0 .107.043.158.133.158h3.708c.656 0 1.221-.232 1.692-.7a2.301 2.301 0 0 0 .707-1.705M544.494 196.863c0 1.374-.491 2.551-1.469 3.528-.977.978-2.154 1.467-3.531 1.467h-5.102a1.27 1.27 0 0 1-.94-.383 1.232 1.232 0 0 1-.382-.912v-17.957c0-.352.125-.656.382-.912.255-.254.571-.383.94-.383h5.102c1.377 0 2.555.483 3.531 1.453.978.973 1.469 2.144 1.469 3.521v10.578zm-2.594 0v-10.578c0-.653-.233-1.214-.707-1.679a2.319 2.319 0 0 0-1.689-.705h-3.712c-.089 0-.131.055-.131.161v15.048c0 .107.042.158.131.158h3.712c.654 0 1.22-.232 1.689-.7a2.298 2.298 0 0 0 .707-1.705M558.063 200.563c0 .354-.131.66-.385.912a1.238 1.238 0 0 1-.913.383h-7.774a1.24 1.24 0 0 1-.915-.383 1.238 1.238 0 0 1-.38-.912v-17.957c0-.352.125-.656.38-.912.255-.254.562-.383.915-.383h7.774c.353 0 .658.129.913.383.254.256.385.561.385.912 0 .354-.131.658-.385.914a1.251 1.251 0 0 1-.913.381h-6.321c-.105 0-.158.055-.158.161v6.081c0 .09.053.135.158.135h5.289c.354 0 .658.127.913.383.257.254.386.561.386.912 0 .369-.129.676-.386.925-.255.248-.559.37-.913.37h-5.289c-.105 0-.158.053-.158.158v6.084c0 .105.053.158.158.158h6.321c.353 0 .658.124.913.37.254.249.385.555.385.925M571.653 200.563c0 .354-.128.66-.383.912a1.231 1.231 0 0 1-.912.383h-7.776c-.35 0-.657-.125-.912-.383a1.237 1.237 0 0 1-.383-.912v-17.957c0-.352.127-.656.383-.912.255-.254.563-.383.912-.383.354 0 .657.129.911.383.256.256.386.561.386.912v16.504c0 .105.054.158.16.158h6.319c.355 0 .657.124.912.37.255.249.383.555.383.925M594.214 182.606c0 .354-.129.658-.384.914a1.284 1.284 0 0 1-.939.381h-2.936c-.106 0-.159.055-.159.161v16.501c0 .354-.128.66-.381.912-.257.258-.562.383-.914.383s-.658-.125-.913-.383a1.243 1.243 0 0 1-.385-.912v-16.501c0-.106-.053-.161-.157-.161h-2.937c-.369 0-.682-.127-.938-.381a1.242 1.242 0 0 1-.385-.914c0-.352.127-.656.385-.912.256-.254.568-.383.938-.383h8.781c.371 0 .682.129.939.383.256.256.385.561.385.912M608.813 196.94c0 1.374-.489 2.553-1.47 3.53-.977.978-2.156 1.467-3.53 1.467h-1.426c-1.375 0-2.555-.489-3.532-1.467-.979-.978-1.468-2.156-1.468-3.53v-14.334c0-.352.127-.656.381-.912.251-.254.562-.383.928-.383.347 0 .652.129.906.386.251.257.379.558.379.911v14.355c0 .655.231 1.216.706 1.684.469.468 1.035.7 1.695.7h1.438a2.32 2.32 0 0 0 1.693-.7 2.288 2.288 0 0 0 .707-1.684v-14.355c0-.354.127-.654.38-.911s.552-.386.902-.386c.368 0 .678.129.93.383.251.256.381.561.381.912v14.334zM623.412 187.897a4.79 4.79 0 0 1-.794 2.668 4.98 4.98 0 0 1-2.091 1.826c-.09.057-.113.125-.078.215l2.854 7.484c.071.155.109.314.109.473 0 .354-.131.66-.388.912a1.278 1.278 0 0 1-.941.383c-.587 0-.994-.28-1.226-.838l-3.031-8.018c-.036-.088-.106-.135-.214-.135h-2.902c-.09 0-.134.053-.134.158v7.537c0 .354-.127.66-.378.912a1.222 1.222 0 0 1-.905.383c-.366 0-.674-.125-.928-.383a1.25 1.25 0 0 1-.38-.912v-17.957c0-.352.128-.656.383-.912a1.29 1.29 0 0 1 .94-.383h5.104c1.375 0 2.552.483 3.532 1.453.976.973 1.468 2.144 1.468 3.521v1.613zm-2.594 0v-1.612c0-.653-.235-1.214-.707-1.679a2.324 2.324 0 0 0-1.691-.705h-3.71c-.09 0-.134.055-.134.161v6.057c0 .106.044.159.134.159h3.71c.656 0 1.22-.235 1.691-.703s.707-1.025.707-1.678M637.005 182.606c0 .354-.13.658-.388.914-.256.254-.57.381-.941.381h-6.34c-.089 0-.134.055-.134.161v6.081c0 .09.045.135.134.135h5.308c.374 0 .687.127.942.383.259.254.388.561.388.912 0 .369-.129.676-.388.925-.256.248-.568.37-.942.37h-5.308c-.089 0-.134.053-.134.158v7.537c0 .354-.127.66-.379.912a1.223 1.223 0 0 1-.904.383c-.367 0-.675-.125-.93-.383a1.24 1.24 0 0 1-.378-.912v-17.957c0-.352.127-.656.384-.912.255-.254.565-.383.935-.383h7.752c.372 0 .681.129.938.383.255.256.385.561.385.912M171.058 144.89v-35.386c4.744 2.305 9.246 3.454 13.504 3.454 4.536 0 8.271-1.044 11.201-3.14 2.932-2.024 4.397-4.643 4.397-7.851 0-3.422-1.99-7.992-5.967-13.713a364.087 364.087 0 0 1-7.956-12.04c-1.608-2.513-3.178-5.304-4.712-8.38-3.84-7.743-5.758-15.384-5.758-22.921 0-8.516 2.06-16.192 6.176-23.035 4.049-6.766 9.773-12.105 17.171-16.014C206.513 1.954 214.642 0 223.508 0c3 0 5.654.142 7.955.419 2.443.279 5.095.802 7.957 1.568v35.91c-3.56-1.187-6.665-1.777-9.318-1.777-4.329 0-7.886 1.112-10.677 3.347-2.792 2.306-4.188 5.272-4.188 8.898 0 4.188 2.546 10.193 7.644 18.01 6.14 9.418 10.188 16.157 12.145 20.201 2.789 6.213 4.187 12.875 4.187 19.997 0 8.237-1.922 15.531-5.762 21.879-3.907 6.49-9.351 11.448-16.328 14.867-7.19 3.489-15.285 5.233-24.289 5.233-6.772.001-14.03-1.221-21.776-3.662M307.617 145.725h-38.213V2.827H319.446c7.886 0 14.445.627 19.682 1.884 5.304 1.396 10.156 3.524 14.552 6.385 6.84 4.257 12.421 10.404 16.751 18.427 4.256 7.888 6.385 16.192 6.385 24.918 0 9.49-2.301 18.213-6.909 26.17-4.675 7.957-10.992 14.273-18.949 18.946-8.025 4.749-16.646 7.119-25.856 7.119-3.002 0-6.701-.417-11.1-1.255V67.104c3.072.838 5.759 1.258 8.062 1.258 4.815 0 8.757-1.43 11.829-4.292 3.002-2.791 4.507-6.496 4.507-11.099 0-4.746-1.609-8.478-4.817-11.198-3.211-2.724-7.608-4.087-13.192-4.087H307.62v108.039zM513.999 65.746v79.979h-38.212v-39.048h-34.442v39.048h-38.209V60.511c0-6.351.453-11.794 1.359-16.334.839-4.606 2.199-8.964 4.083-13.083a47.818 47.818 0 0 1 7.224-11.308c5.163-6.282 11.479-11.164 18.948-14.656C442.078 1.711 450.035 0 458.617 0c8.236 0 15.952 1.57 23.139 4.709 7.188 3.213 13.433 7.89 18.74 14.031 4.744 5.515 8.198 11.479 10.365 17.899 2.094 6.354 3.138 14.309 3.138 23.872v5.235zm-72.654 8.478h34.442V60.405c0-6.139-.697-10.713-2.092-13.713-1.329-2.654-3.352-4.854-6.071-6.597-2.795-1.604-5.796-2.409-9.007-2.409-3.419 0-6.559.944-9.421 2.826-2.863 1.887-4.919 4.366-6.175 7.433-1.117 2.516-1.677 6.667-1.677 12.46v13.819zM539.691 2.827v37.899h30.046v80.406l28.07 24.593h10.04V40.726h30.042V2.827zM141.051 37.074c-6.624-11.441-15.664-20.476-27.105-27.103C102.508 3.342 90.123.029 76.794.029c-13.458 0-25.877 3.347-37.254 10.042C28.026 16.705 18.995 25.7 12.435 37.074c-6.629 11.439-9.94 23.865-9.94 37.261 0 13.325 3.312 25.708 9.94 37.148 6.561 11.292 15.592 20.341 27.105 27.096 11.447 6.628 23.866 9.944 37.254 9.944 13.33 0 25.715-3.316 37.152-9.944 11.514-6.628 20.549-15.627 27.105-26.993 6.626-11.454 9.941-23.855 9.941-37.251 0-13.396-3.315-25.821-9.941-37.261zM109.85 87.861c-.403.672-.9 1.432-1.537 2.272-2.179 2.875-5.746 6.242-10.798 9.011-5.051 2.775-12.382 3.716-12.382 3.716s-.148 1.686-.743 3.222c-.594 1.535-2.674 3.564-2.773 2.624-.099-.941-1.485-6.834-1.833-6.935-.346-.098-.939-.592-1.485-1.633-.545-1.039-5.399-6.787-6.785-8.074-1.387-1.287-.991-3.119-1.436-4.012-.447-.893-4.507-6.39-5.747-7.777-1.238-1.387-1.979-3.367-2.476-5.1-.496-1.734.347-3.071.992-4.208.642-1.142 1.484-1.588 2.426-1.934.939-.344 1.783-.743 2.477-1.337.693-.597 1.288-.394 2.179.1.892.494 2.476 1.438 2.476 1.438s.445.988.793 2.473c.346 1.485 7.232 5.746 8.023 6.343.793.592.694 1.287.842 2.178.149.891 2.807 2.312 2.807 2.312.528.262.661.394 1.123.526.464.132.728-.264 1.389-.792.658-.529.658-.328 1.122-.529.462-.198 2.641-1.057 2.904-1.385.264-.33.662-.861 1.255-2.378.596-1.52.396-2.442-.198-4.622s-2.311-3.829-3.368-5.084-4.687-6.739-4.687-6.739-.068-1.514-.596-2.31c-.527-.79-7.133-9.706-7.792-10.3-.661-.596-1.486-.696-1.486-.696-.396-.494-1.386-7.032-1.386-7.032-3.17 1.389-3.467 6.143-3.467 6.143S44.222 49.915 41.35 73.788l-.044.007c.202-19.311 15.866-35.063 35.269-35.262l.374-.002c19.45 0 35.436 15.831 35.634 35.287.05 4.973-.929 9.72-2.733 14.043z"/></g></svg>